<svg width="75" height="75" viewBox="0 0 75 75" fill="none" xmlns="http://www.w3.org/2000/svg">
<g clip-path="url(#clip0)">
<path d="M58.4155 13.3477C56.085 13.3477 53.9663 15.2544 53.9663 17.7968C53.9663 20.1273 55.8731 22.246 58.4155 22.246C60.746 22.246 62.8646 20.3392 62.8646 17.7968C62.6527 15.2544 60.746 13.3477 58.4155 13.3477Z" fill="#ACC5D8"/>
<path d="M38.712 19.0674C28.5425 19.0674 20.2798 27.3301 20.2798 37.4996C20.2798 47.6691 28.5425 55.9318 38.712 55.9318C48.8815 55.9318 57.1442 47.6691 57.1442 37.4996C57.1442 27.3301 48.8815 19.0674 38.712 19.0674ZM38.712 49.364C32.1442 49.364 26.8476 44.0674 26.8476 37.4996C26.8476 30.9318 32.1442 25.6352 38.712 25.6352C45.2798 25.6352 50.5764 30.9318 50.5764 37.4996C50.5764 44.0674 45.2798 49.364 38.712 49.364Z" fill="#ACC5D8"/>
<path d="M53.5424 75H23.4576C11.1695 75 1 64.8305 1 52.5424V22.4576C1 10.1695 11.1695 0 23.4576 0H53.3305C65.8305 0 75.7881 10.1695 75.7881 22.4576V52.3305C76 64.8305 65.8305 75 53.5424 75ZM23.4576 6.99153C14.983 6.99153 7.99152 13.9831 7.99152 22.4576V52.3305C7.99152 60.8051 14.983 67.7966 23.4576 67.7966H53.3305C61.8051 67.7966 68.7966 60.8051 68.7966 52.3305V22.4576C68.7966 13.9831 61.8051 6.99153 53.3305 6.99153H23.4576Z" fill="#ACC5D8"/>
</g>
<defs>
<clipPath id="clip0">
<rect width="75" height="75" fill="white"/>
</clipPath>
</defs>
</svg>
