<svg width="125" height="88" viewBox="0 0 125 88" fill="none" xmlns="http://www.w3.org/2000/svg">
<path d="M9.18115 1.27532L52.6133 45.5927C55.0851 48.1434 58.6162 49.4187 62.5004 49.4187C66.3845 49.4187 69.9156 47.8246 72.3874 45.5927L114.76 1.91298C115.113 1.59415 115.466 1.27532 115.82 0.956491C114.407 0.31883 112.288 0 110.17 0H14.8309C12.7122 0 10.9467 0.31883 9.18115 1.27532C9.18115 0.956491 9.18115 1.27532 9.18115 1.27532Z" fill="#ACC5D8"/>
<path d="M122.528 6.37695C122.175 6.69578 122.175 7.33344 121.822 7.65227L79.096 51.332C74.8587 55.7957 68.8559 58.0275 62.5 58.0275C56.1441 58.0275 50.1412 55.4768 45.904 51.332L2.47175 6.69578C2.47175 6.69578 2.47175 6.37695 2.11864 6.37695C0.706215 8.60877 0 10.8406 0 13.3912V73.6501C0 80.9832 6.70904 87.041 14.8305 87.041H110.169C118.291 87.041 125 80.9832 125 73.6501V13.3912C125 10.8406 123.941 8.28993 122.528 6.37695Z" fill="#ACC5D8"/>
</svg>
